<svg width="512" height="512" viewBox="0 0 512 512" fill="none" xmlns="http://www.w3.org/2000/svg">
  <defs>
    <linearGradient id="bg" x1="76" y1="52" x2="426" y2="462" gradientUnits="userSpaceOnUse">
      <stop offset="0" stop-color="#FFD36D"/>
      <stop offset="0.55" stop-color="#F17B45"/>
      <stop offset="1" stop-color="#C84827"/>
    </linearGradient>
    <linearGradient id="ring" x1="164" y1="106" x2="356" y2="404" gradientUnits="userSpaceOnUse">
      <stop offset="0" stop-color="#1F2940"/>
      <stop offset="1" stop-color="#08101C"/>
    </linearGradient>
    <linearGradient id="bolt" x1="228" y1="158" x2="322" y2="350" gradientUnits="userSpaceOnUse">
      <stop offset="0" stop-color="#6ED1FF"/>
      <stop offset="1" stop-color="#2B74FF"/>
    </linearGradient>
  </defs>
  <rect x="36" y="36" width="440" height="440" rx="120" fill="url(#bg)"/>
  <circle cx="256" cy="256" r="136" fill="url(#ring)" stroke="#FFFFFF" stroke-opacity="0.18" stroke-width="8"/>
  <path d="M344 182C320 153 289 138 251 138C186 138 132 192 132 258C132 324 186 378 252 378C305 378 352 343 367 292" stroke="#FFF8ED" stroke-width="24" stroke-linecap="round"/>
  <path d="M294 146L348 146L348 200" stroke="#FFF8ED" stroke-width="24" stroke-linecap="round" stroke-linejoin="round"/>
  <path d="M276 154L214 264H258L228 358L314 228H266L276 154Z" fill="url(#bolt)"/>
</svg>
